<svg xmlns="http://www.w3.org/2000/svg" version="1.0" viewBox="0 0 1133.858 1133.858"><path fill="#fc6506" d="M366.017,966.769c0,0-16.958-32.063-15.933-32.627c1.023-0.564,31.899-4.353,31.899-4.353l5.942,36.98 H366.017z"/><path fill="#570000" d="M451.659,1073.652c-10.635,21.908-36.505,24.557-53.116,23.242c-12.209-0.977-29.795-1.237-38.519-15.039 c-3.126-4.959-5.117-11.669-5.297-20.811c-0.658-34.534-4.204-38.378-4.682-41.167c-0.338-1.895,1.813-8.227,4.024-14.342 c1.553-4.278,3.168-8.44,3.983-10.892c1.992-5.974,1.992-5.974,1.992-5.974c-0.677-1.992-21.25-18.583,0-21.909 c21.231-3.306,35.172-1.991,39.833,0c4.641,1.992-2.669,13.942-4.661,21.909c-1.991,7.966,33.201,25.909,43.817,35.191 c0,0,0,0.02,0.021,0.02C449.689,1033.181,462.275,1051.762,451.659,1073.652z"/><path fill="#FFF" d="M451.659,1073.652c-10.635,21.908-36.505,24.557-53.116,23.242c-12.209-0.977-29.795-1.237-38.519-15.039 c-3.126-4.959-5.117-11.669-5.297-20.811c-0.658-34.534-4.204-38.378-4.682-41.167c-0.338-1.895,1.813-8.227,4.024-14.342 c6.094,8.387,16.75,25.436,14.917,39.793c-2.569,19.916,0.617,29.875,18.94,31.866c18.324,1.992,43.099,1.654,54.174-15.933 c10.833-17.186-2.451-36.507-3.047-37.382C449.689,1033.181,462.275,1051.762,451.659,1073.652z"/><path fill="#FFF" d="M364.566,1009.037c0-4.8-1.425-8.69-3.183-8.69c-1.759,0-3.185,3.89-3.185,8.69 c0,4.796,1.425,8.686,3.185,8.686C363.141,1017.722,364.566,1013.833,364.566,1009.037z"/><path fill="#FFF" d="M376.446,1003.433c-0.14,0-0.279-0.052-0.388-0.158c-0.219-0.213-0.223-0.565-0.009-0.784 c0.199-0.205,5.03-4.971,17.5-1.904c0.298,0.073,0.479,0.374,0.405,0.67c-0.071,0.298-0.369,0.48-0.67,0.406 c-11.868-2.914-16.398,1.558-16.442,1.603C376.734,1003.376,376.59,1003.433,376.446,1003.433z"/><path fill="#FFF" d="M376.446,1013.193c-0.177,0-0.351-0.085-0.458-0.243c-0.172-0.253-0.107-0.598,0.146-0.77 c0.114-0.078,11.6-7.719,26.852-3.68c0.297,0.079,0.473,0.382,0.395,0.678c-0.078,0.297-0.376,0.476-0.678,0.394 c-14.776-3.92-25.835,3.449-25.945,3.523C376.663,1013.161,376.555,1013.193,376.446,1013.193z"/><path fill="#FFF" d="M384.931,1020.405c-0.165,0-0.328-0.073-0.438-0.213c-0.188-0.242-0.145-0.591,0.096-0.779 c0.277-0.215,6.892-5.237,18.396-2.227c0.296,0.077,0.474,0.38,0.396,0.677c-0.077,0.297-0.376,0.476-0.677,0.396 c-10.972-2.872-17.369,1.98-17.432,2.029C385.17,1020.367,385.05,1020.405,384.931,1020.405z"/><path fill="#fc6506" d="M149.045,970.084c0,0,16.959-32.064,15.934-32.628c-1.022-0.564-31.899-4.353-31.899-4.353l-5.942,36.981 H149.045z"/><path fill="#570000" d="M63.404,1076.967c10.635,21.909,36.504,24.557,53.116,23.242c12.209-0.976,29.795-1.237,38.518-15.038 c3.126-4.959,5.118-11.67,5.299-20.812c0.657-34.534,4.202-38.377,4.681-41.166c0.339-1.895-1.813-8.228-4.024-14.342 c-1.554-4.279-3.169-8.44-3.983-10.892c-1.992-5.976-1.992-5.976-1.992-5.976c0.677-1.991,21.25-18.582,0-21.908 c-21.23-3.307-35.172-1.992-39.833,0c-4.64,1.992,2.669,13.942,4.661,21.908c1.992,7.967-33.2,25.911-43.815,35.192 c0,0,0,0.02-0.021,0.02C65.375,1036.498,52.789,1055.079,63.404,1076.967z"/><path fill="#FFF" d="M63.404,1076.967c10.635,21.909,36.504,24.557,53.116,23.242c12.209-0.976,29.795-1.237,38.518-15.038 c3.126-4.959,5.118-11.67,5.299-20.812c0.657-34.534,4.202-38.377,4.681-41.166c0.339-1.895-1.813-8.228-4.024-14.342 c-6.093,8.386-16.75,25.436-14.918,39.794c2.57,19.915-0.616,29.873-18.94,31.865c-18.323,1.992-43.098,1.654-54.172-15.933 c-10.833-17.187,2.45-36.507,3.046-37.383C65.375,1036.498,52.789,1055.079,63.404,1076.967z"/><ellipse cx="153.68" cy="1012.352" fill="#FFF" rx="3.184" ry="8.689"/><path fill="#FFF" d="M138.617,1006.75c-0.143,0-0.286-0.056-0.395-0.166c-0.048-0.047-4.654-4.5-16.445-1.605 c-0.296,0.076-0.598-0.108-0.67-0.406c-0.074-0.298,0.108-0.598,0.406-0.67c12.47-3.06,17.302,1.7,17.5,1.905 c0.215,0.219,0.21,0.571-0.008,0.784C138.897,1006.697,138.757,1006.75,138.617,1006.75z"/><path fill="#FFF" d="M138.616,1016.509c-0.107,0-0.215-0.031-0.311-0.097c-0.111-0.074-11.195-7.438-25.946-3.524 c-0.301,0.082-0.599-0.097-0.678-0.394c-0.078-0.296,0.097-0.599,0.394-0.678c15.261-4.043,26.741,3.603,26.853,3.681 c0.253,0.172,0.318,0.517,0.146,0.77C138.968,1016.423,138.794,1016.509,138.616,1016.509z"/><path fill="#FFF" d="M130.13,1023.721c-0.118,0-0.238-0.038-0.339-0.117c-0.064-0.048-6.495-4.892-17.433-2.029 c-0.3,0.08-0.6-0.1-0.677-0.396c-0.078-0.297,0.1-0.6,0.395-0.677c11.507-3.012,18.118,2.013,18.396,2.227 c0.241,0.188,0.284,0.536,0.096,0.778C130.459,1023.648,130.296,1023.721,130.13,1023.721z"/><path fill="#f68016" d="M442.193,819.88c-5.299,62.417-9.281,108.882-9.281,108.882s-16.811,6.115-37.085,10.994 c-21.988,5.317-48.058,9.203-61.182,2.291c-25.214-13.284-25.214-13.284-25.214-13.284s-22.128-204.48-30.99-220.414 c-1.672-3.026-3.127-5.916-4.363-8.585c-5.338-11.451-6.971-19.297-6.971-19.297s-29.375,163.313-33.359,187.213 c-3.983,23.899-5.775,43.816-5.775,43.816s-23.701,19.457-51.008,29.136c-10.574,3.744-21.707,6.017-32.205,5.118 c-43.136-3.703-57.078-23.619-57.078-23.619s25.234-227.046,34.535-265.564c9.281-38.498,10.615-66.381,9.281-73.014 c-1.314-6.651-3.105-30.551,0.438-47.799c1.913-9.26,5.516-21.311,8.464-30.471c2.529-7.909,4.561-13.683,4.561-13.683 s82.574,20.234,106.255,14.937c23.681-5.318,115.295-20.194,115.295-20.194s14.618,13.562,27.883,70.643 C407.679,614.084,447.51,757.482,442.193,819.88z"/><path fill="#570000" d="M122.196,468.239c-0.257-0.022-0.377-0.042-0.338-0.083C121.958,468.08,122.078,468.099,122.196,468.239z"/><path fill="#d96900" d="M442.193,819.88c-5.299,62.417-9.281,108.882-9.281,108.882s-16.811,6.115-37.085,10.994 c6.533-33.341,10.236-181.815,7.012-204.8c-3.507-25.192-41.626-158.055-46.564-177.632c-4.94-19.578-22.944-30.871-85.442-16.929 c-48.814,10.896-107.209-20.733-130.433-35.111c2.529-7.909,4.561-13.683,4.561-13.683s82.574,20.234,106.255,14.937 c23.681-5.318,115.295-20.194,115.295-20.194s14.618,13.562,27.883,70.643C407.679,614.084,447.51,757.482,442.193,819.88z"/><path fill="#d96900" d="M274.079,699.764c-5.338-11.451-6.971-19.297-6.971-19.297s-29.375,163.313-33.359,187.213 c-3.983,23.899-5.775,43.816-5.775,43.816s-23.701,19.457-51.008,29.136c6.076-29.038,23.063-110.833,37.305-185.142 c17.687-92.272,44.712-134.774,50.906-119.777C269.757,646.749,274.777,680.904,274.079,699.764z"/><path fill="#570000" d="M283.53,248.743c0,0-35.352,8.342-78.669,8.342c-43.318,0-51.284,3.485-58.753,12.945 c-7.469,9.46,23.899,60.744,22.406,76.181c-1.494,15.434-26.203,130.451-23.558,145.389c2.645,14.937,7.127,15.933,24.553,21.41 c17.427,5.477,87.632,27.385,145.389,3.485c57.758-23.899,58.753-26.39,58.753-26.39s0.997-61.242-15.435-121.987 c-0.486-14.048,5.477-17.924,8.464-21.41c2.987-3.485-17.924-61.243-17.924-80.661c0-19.418,1.494-38.099,1.494-38.836 C350.25,226.473,283.53,248.743,283.53,248.743z"/><path fill="#fc6506" d="M275.369,173.834c0,0,9.868,20.838,0,40.58c-9.872,19.744-34.001,23.032-53.743,10.97 c-15.487-9.466-11.399-32.432-8.919-41.891c0.68-2.596,1.24-4.174,1.24-4.174"/><path fill="#fc6506" d="M214.818,200.324c0,0-15.933,0.995-17.427-9.461s11.452-13.941,17.427-5.975 C220.793,192.854,214.818,200.324,214.818,200.324z"/><path fill="#fc6506" d="M274.069,186.382c0,0,6.474-11.722,12.946-5.86c6.473,5.86-0.498,25.915-10.954,22.608 C265.604,199.825,274.069,186.382,274.069,186.382z"/><path fill="#d1550b" d="M276.571,181.591l11.173,5.563c0,0,11.357-3.26,13.543-17.532c2.185-14.274-7.958-17.569-10.3-17.569 c-2.338,0-14.416,24.706-14.416,24.706V181.591z"/><path fill="#d1550b" d="M287.529,161.417c-2.033,5.021-4.502,9.56-6.833,13.146c-9.619,14.817-23.34,14.28-46.404,14.399 c-23.044,0.119-51.026-14.399-57.061-36.905c-2.549-9.479-2.848-17.906-1.992-25.113c2.173-18.245,11.85-28.68,11.85-28.68 c12.489,57.079,63.674,6.033,89.485,18.103C296.13,125.526,293.921,145.723,287.529,161.417z"/><path fill="#fc6506" d="M232.224,230.266l34.875-5.298c0,0-2.987,23.776,0,26.737c1.825,1.808,16.432-2.961,16.432-2.961 c-9.461,23.611-30.372,25.769-45.807,23.279c-15.435-2.49-21.909-16.432-17.427-16.432c4.48,0,14.027-4.48,14.027-4.48v-20.218"/><path fill="#fc6506" d="M344.782,421.395c-1.494,3.982-7.966,7.468-11.95,13.941c-3.984,6.473-19.419,19.417-29.875,22.903 c-10.455,3.486-44.811,3.486-62.736,5.976c-17.924,2.489-25.891,11.452-42.938,13.94c-66.841,18.423-116.891,0-116.891,0 c-11.452-12.945-7.468-50.288-4.481-62.736c2.053-8.544,21.25-51.402,36.307-84.983c6.853-15.297,12.846-28.678,15.975-36.008 c9.958-23.401,21.47-28.301,21.47-28.301s7.807,20.057,10.794,29.517c2.987,9.459,7.538,58.66,8.037,64.136 c0.14,1.534,2.26,5.53,1.004,10.033c-3.305,11.631-9.041,28.957-5.456,29.673c4.979,0.997,68.213,8.963,73.192,7.967 c4.979-0.997,17.666-6.473,33.599-23.899c15.933-17.427,18.602-13.186,20.096-8.465c1.493,4.702-17.507,19.957-11.172,24.777 c4.839,3.685,8.762,0.119,26.687-4.86c17.925-4.979,35.352-6.473,36.846-3.485c1.494,2.988-3.277,7.973-9.461,8.962 c-5.92,0.947-31.368,13.941-29.375,16.431c1.991,2.489,20.202,6.434,40.33-3.485C347.188,412.243,346.275,417.411,344.782,421.395z"/><path fill="#fc6506" d="M627.555,99.859c11.256,12.068,2.488,22.602,2.488,22.602s0.799,3.349,0.799,6.71 c0,1.754,0.274,0.696-3.271,6.989c-7.309,15.913-18.493,20.347-31.399,20.515c-13.822,0.179-24.522,2.661-34.479,17.16 c-9.958,14.498-60.406,90.38-65.048,95.698c-4.659,5.318-57.1,24.558-76.358,36.507c-9.121,5.656-20.912,14.599-31.148,22.665 c-11.355,8.982-20.793,16.87-22.447,18.004c-3.166,2.152-27.439-60.05-27.439-60.05l-6.504-9.395c0,0-13.996-40.174-7.603-42.266 c3.565-1.177,33.36-10.376,60.426-19.121c21.291-6.87,40.869-13.424,44.674-15.535c8.644-4.778,31.209-27.742,41.167-37.382 c9.959-9.641,52.439-33.499,57.758-40.15c5.316-6.633,11.949-10.617,21.25-16.591c9.281-5.976,29.197-15.934,39.156-23.9 c9.958-7.967,27.17-35.711,35.989-28.99c1.906,1.453-3.446,9.73-5.438,18.374c-1.992,8.625-4.894,10.248-7.507,16.258 C630.842,91.469,624.332,96.402,627.555,99.859z"/><path fill="#570000" d="M169.498,369.813c-12.088-11.831-41.705-30.094-57.279-39.376c6.853-15.297,12.846-28.678,15.975-36.008 c9.958-23.401,21.47-28.301,21.47-28.301s10.396,16.849,13.383,26.31c2.987,9.46,7.967,62.238,8.464,67.716 C171.648,361.686,170.754,365.31,169.498,369.813z"/><path fill="#570000" d="M389.137,328.704c-11.355,8.982-20.793,16.87-22.447,18.004c-3.166,2.152-33.359-59.25-33.359-59.25 l-4.661-9.302c0,0-9.919-41.066-3.526-43.158c3.565-1.177,33.36-10.376,60.426-19.121 C387.044,243.144,390.829,299.586,389.137,328.704z"/><path fill="#570000" d="M239.107,211.96c-1.271,0-5.196-0.45-6.511-2.447c-0.367-0.557-0.695-1.471-0.182-2.667 c0.902-2.095,1.369-8.543,1.473-10.853c0.028-0.612,0.559-1.083,1.158-1.059c0.612,0.027,1.085,0.546,1.058,1.158 c-0.04,0.89-0.426,8.784-1.651,11.63c-0.149,0.348-0.062,0.481-0.003,0.57c0.573,0.871,3.182,1.448,4.657,1.448 c0.613,0,1.109,0.497,1.109,1.109C240.216,211.463,239.72,211.96,239.107,211.96z"/><path fill="#570000" d="M245.027,233.535c-0.007,0-0.015,0-0.024,0c-30.577-0.651-33.888-19.833-33.918-20.026 c-0.093-0.605,0.322-1.172,0.927-1.265c0.612-0.087,1.17,0.32,1.265,0.924c0.116,0.725,3.155,17.541,31.773,18.149 c0.612,0.013,1.098,0.52,1.085,1.133C246.123,233.054,245.629,233.535,245.027,233.535z"/><path fill="#570000" d="M310.527,436.321c-1.208,0-2.451-0.025-3.739-0.076c-0.612-0.024-1.088-0.541-1.063-1.151 c0.025-0.613,0.569-1.077,1.152-1.064c33.098,1.313,37.833-15.77,37.877-15.943c0.15-0.59,0.749-0.952,1.344-0.805 c0.593,0.147,0.955,0.744,0.81,1.337C346.724,419.367,342.187,436.321,310.527,436.321z"/><path fill="#570000" d="M306.832,448.585c-0.557,0-1.037-0.418-1.102-0.983c-0.068-0.609,0.37-1.159,0.978-1.228 c14.928-1.688,28.072-10.466,29.85-17.185c0.157-0.594,0.765-0.942,1.356-0.789c0.593,0.156,0.946,0.762,0.789,1.356 c-2.214,8.364-17.048,17.159-31.746,18.822C306.915,448.583,306.873,448.585,306.832,448.585z"/><path fill="#570000" d="M594.921,133.07c-3.872,0.001-7.608-0.783-10.801-2.912c-3.114-2.075-4.624-4.159-4.615-6.371 c0.013-3.35,3.451-6.291,8.612-9.675c0.516-0.334,1.201-0.194,1.536,0.32c0.336,0.512,0.192,1.2-0.318,1.536 c-3.76,2.465-7.603,5.322-7.612,7.829c-0.005,1.389,1.216,2.909,3.627,4.517c6.599,4.399,16.242,2.238,23.91-0.137 c6.103-1.89,17.665-15.863,17.188-28.274c-0.113-2.921-1.146-5.23-3.071-6.866c-4.614-3.92-12.85-2.946-12.93-2.935 c-0.615,0.078-1.163-0.355-1.238-0.964c-0.075-0.606,0.355-1.161,0.963-1.237c0.378-0.048,9.292-1.097,14.642,3.447 c2.418,2.053,3.714,4.903,3.851,8.47c0.533,13.841-12.182,28.445-18.747,30.478C605.302,131.724,599.996,133.07,594.921,133.07z"/><path fill="#570000" d="M606.315,140.066c-1.938,0.001-4.029-0.273-6.382-0.784c-11.777-2.561-15.971-9.185-16.144-9.465 c-0.32-0.521-0.158-1.205,0.363-1.526c0.522-0.321,1.205-0.158,1.526,0.364c0.035,0.056,3.936,6.113,14.727,8.459 c10.694,2.324,14.891,0.028,28.031-15.372c9.41-11.028-1.164-20.65-1.619-21.054c-0.458-0.407-0.499-1.108-0.092-1.566 c0.406-0.458,1.106-0.5,1.564-0.092c0.128,0.114,12.638,11.49,1.834,24.151C619.774,135.313,614.386,140.066,606.315,140.066z"/><path fill="#570000" d="M612.001,142.583c-6.242,0-10.533-2.293-11.671-2.976c-0.525-0.315-0.695-0.995-0.38-1.521 c0.315-0.525,0.995-0.695,1.521-0.38c0.987,0.592,9.994,5.625,21.854-0.05c3.157-1.51,5.171-3.573,5.985-6.131 c1.348-4.237-0.976-8.48-0.998-8.524c-0.3-0.535-0.107-1.21,0.428-1.508c0.535-0.299,1.211-0.107,1.509,0.429 c0.115,0.206,2.811,5.134,1.175,10.274c-1.007,3.167-3.409,5.677-7.141,7.461C619.709,141.844,615.541,142.583,612.001,142.583z"/><path fill="#570000" d="M207.375,197.153c-0.028,0-0.057-0.001-0.084-0.003c-0.611-0.046-1.069-0.579-1.022-1.189 c0.262-3.47-0.336-5.911-1.73-7.059c-1.521-1.252-3.653-0.687-3.676-0.68c-0.588,0.16-1.2-0.182-1.365-0.769 s0.172-1.197,0.759-1.365c0.131-0.037,3.236-0.898,5.668,1.082c2.021,1.646,2.88,4.66,2.555,8.957 C208.435,196.71,207.95,197.153,207.375,197.153z"/><path fill="#570000" d="M280.177,200.635c-0.13,0-0.261-0.022-0.389-0.07c-1.215-0.456-1.645-1.315-1.792-1.956 c-0.698-3.033,3.818-7.978,4.731-8.938c0.421-0.444,1.124-0.462,1.567-0.041c0.444,0.422,0.462,1.124,0.041,1.568 c-1.873,1.973-4.496,5.534-4.177,6.913c0.021,0.091,0.055,0.244,0.408,0.376c0.574,0.214,0.864,0.854,0.65,1.427 C281.048,200.36,280.625,200.635,280.177,200.635z"/><path fill="#570000" d="M450.374,292.327c-0.43,0-0.84-0.253-1.02-0.673c-0.241-0.563,0.02-1.215,0.583-1.456 c0.241-0.104,24.203-10.368,31.336-13.706c0.554-0.26,1.215-0.02,1.476,0.535c0.259,0.554,0.02,1.215-0.535,1.475 c-7.167,3.353-31.162,13.631-31.403,13.733C450.669,292.296,450.521,292.327,450.374,292.327z"/><path fill="#570000" d="M493.968,272.588c-0.3,0-0.598-0.12-0.816-0.357c-0.414-0.45-0.387-1.151,0.064-1.566 c0.174-0.163,17.695-16.52,34.489-48.303c0.285-0.542,0.956-0.75,1.497-0.462c0.542,0.286,0.75,0.958,0.463,1.499 c-16.984,32.146-34.769,48.732-34.946,48.896C494.506,272.491,494.236,272.588,493.968,272.588z"/><path fill="#570000" d="M98.947,483.966c-0.061,0-0.121-0.004-0.183-0.015c-7.878-1.313-13.546-3.123-13.785-3.199 c-0.583-0.187-0.903-0.812-0.716-1.395c0.188-0.583,0.813-0.9,1.395-0.717c0.057,0.019,5.762,1.838,13.469,3.123 c0.604,0.101,1.013,0.672,0.912,1.276C99.95,483.582,99.48,483.966,98.947,483.966z"/><path fill="#570000" d="M144.757,581.336c-0.452,0-0.876-0.278-1.041-0.727c-0.211-0.575,0.083-1.212,0.658-1.423 c19.116-7.021,29.124-44.667,29.222-45.046c0.154-0.594,0.766-0.945,1.353-0.794c0.593,0.155,0.949,0.76,0.794,1.353 c-0.416,1.596-10.411,39.153-30.604,46.569C145.014,581.314,144.884,581.336,144.757,581.336z"/><path fill="#570000" d="M381.134,565.403c-0.196,0-0.394-0.052-0.574-0.16c-22.139-13.418-24.983-47.23-25.093-48.663 c-0.046-0.611,0.409-1.144,1.02-1.191c0.623-0.043,1.143,0.411,1.191,1.021c0.026,0.34,2.876,34.114,24.032,46.936 c0.523,0.317,0.691,1,0.374,1.524C381.875,565.212,381.509,565.403,381.134,565.403z"/><path fill="#570000" d="M98.947,904.645c-0.041,0-0.083-0.002-0.125-0.006c-0.609-0.069-1.046-0.619-0.978-1.227 c1.287-11.413,7.132-47.938,13.32-86.609c8.037-50.223,17.146-107.146,17.861-119.136c1.257-21.074,14.51-89.74,14.645-90.432 c0.116-0.6,0.698-0.996,1.3-0.877c0.601,0.116,0.994,0.697,0.877,1.299c-0.133,0.69-13.358,69.213-14.608,90.143 c-0.722,12.1-9.84,69.081-17.885,119.354c-6.183,38.645-12.024,75.146-13.305,86.508C99.984,904.227,99.504,904.645,98.947,904.645 z"/><path fill="#570000" d="M322.231,909.956c-0.59,0-1.082-0.466-1.107-1.062c-1.774-41.617-23.5-194.918-29.902-202.478 c-6.752-7.974-15.28-24.731-15.64-25.44c-0.277-0.546-0.059-1.214,0.487-1.491c0.545-0.28,1.213-0.06,1.491,0.488 c0.087,0.171,8.771,17.235,15.354,25.01c7.34,8.667,28.795,165.553,30.426,203.816c0.026,0.612-0.448,1.129-1.06,1.156 C322.264,909.956,322.247,909.956,322.231,909.956z"/><path fill="#570000" d="M423.626,909.956c-0.05,0-0.102-0.003-0.153-0.011c-0.607-0.083-1.03-0.644-0.946-1.25 c0.021-0.157,2.193-15.896,4.553-36.903c0.067-0.607,0.621-1.042,1.226-0.979c0.608,0.069,1.048,0.617,0.979,1.226 c-2.363,21.038-4.539,36.803-4.562,36.959C424.646,909.554,424.172,909.956,423.626,909.956z"/><path fill="#570000" d="M429.118,864.486c-0.039,0-0.079-0.002-0.119-0.006c-0.608-0.065-1.05-0.611-0.984-1.221 c0.438-4.112,0.878-8.367,1.304-12.702c0.061-0.609,0.593-1.047,1.212-0.996c0.61,0.06,1.056,0.602,0.996,1.212 c-0.426,4.342-0.866,8.603-1.307,12.722C430.159,864.063,429.678,864.486,429.118,864.486z"/><path fill="#570000" d="M432.415,829.329c-0.029,0-0.059-0.001-0.088-0.003c-0.61-0.048-1.066-0.582-1.019-1.192 c0.766-9.775,1.312-18.716,1.621-26.575c0.023-0.598,0.515-1.066,1.106-1.066c0.016,0,0.03,0,0.045,0.001 c0.612,0.024,1.09,0.54,1.064,1.151c-0.311,7.888-0.857,16.857-1.626,26.662C433.475,828.888,432.988,829.329,432.415,829.329z"/><path fill="#570000" d="M434.309,793.103c-0.006,0-0.012,0-0.018,0c-0.613-0.01-1.102-0.514-1.092-1.126 c0.069-4.332,0.049-8.331-0.063-11.886c-0.109-3.594-0.512-8.062-1.191-13.281c-0.08-0.606,0.349-1.164,0.956-1.242 c0.596-0.082,1.163,0.349,1.242,0.956c0.691,5.291,1.099,9.833,1.211,13.499c0.111,3.588,0.134,7.623,0.063,11.989 C435.408,792.618,434.913,793.103,434.309,793.103z"/><path fill="#570000" d="M430.36,750.896c-0.526,0-0.993-0.375-1.091-0.912c-0.924-5.104-2.03-10.755-3.289-16.798 c-0.126-0.6,0.259-1.187,0.859-1.312c0.6-0.13,1.187,0.259,1.312,0.859c1.264,6.062,2.374,11.732,3.302,16.856 c0.108,0.603-0.291,1.18-0.895,1.289C430.492,750.891,430.426,750.896,430.36,750.896z"/><path fill="#570000" d="M423.856,719.282c-0.507,0-0.965-0.35-1.081-0.865c-1.742-7.752-3.717-16.162-5.871-24.997 c-0.146-0.596,0.22-1.196,0.814-1.341c0.6-0.149,1.195,0.22,1.341,0.815c2.156,8.849,4.135,17.272,5.88,25.036 c0.135,0.598-0.241,1.191-0.838,1.326C424.019,719.273,423.937,719.282,423.856,719.282z"/><path fill="#570000" d="M415.13,682.728c-0.496,0-0.948-0.336-1.074-0.839c-2.185-8.72-4.59-18.061-7.148-27.763 c-0.156-0.592,0.197-1.199,0.79-1.355c0.582-0.153,1.198,0.197,1.354,0.79c2.562,9.71,4.968,19.061,7.155,27.789 c0.149,0.595-0.213,1.197-0.807,1.345C415.31,682.717,415.22,682.728,415.13,682.728z"/><path fill="#570000" d="M405.923,647.196c-0.489,0-0.938-0.327-1.07-0.823c-0.961-3.599-1.895-7.063-2.788-10.362 c-0.16-0.591,0.188-1.2,0.78-1.36c0.594-0.165,1.2,0.188,1.36,0.78c0.896,3.301,1.829,6.77,2.79,10.371 c0.158,0.591-0.194,1.2-0.785,1.357C406.114,647.184,406.018,647.196,405.923,647.196z"/><path fill="#570000" d="M399.035,621.876c-0.485,0-0.932-0.322-1.067-0.813c-2.661-9.609-4.619-16.479-5.549-19.72 c-0.083-0.288-0.303-1.055,0.438-1.49l1.123,1.913l-0.56-0.958l1.068-0.297l0.063,0.22c0.931,3.244,2.892,10.121,5.555,19.74 c0.163,0.59-0.184,1.201-0.773,1.365C399.233,621.863,399.134,621.876,399.035,621.876z"/><path fill="#570000" d="M413.886,909.956c-0.039,0-0.079-0.002-0.12-0.007c-0.609-0.065-1.05-0.612-0.983-1.222 c0.015-0.137,1.505-14.009,3.298-33.121c0.058-0.609,0.581-1.06,1.209-1c0.609,0.057,1.057,0.599,1,1.208 c-1.794,19.127-3.287,33.013-3.302,33.151C414.927,909.534,414.445,909.956,413.886,909.956z"/><path fill="#570000" d="M419.241,853.851c-0.031,0-0.063-0.001-0.095-0.004c-0.61-0.052-1.063-0.588-1.011-1.199 c0.974-11.447,1.804-22.201,2.466-31.963c0.041-0.611,0.587-1.058,1.182-1.032c0.612,0.042,1.073,0.571,1.032,1.182 c-0.664,9.775-1.494,20.542-2.471,32.002C420.297,853.415,419.812,853.851,419.241,853.851z"/><path fill="#570000" d="M422.801,803.78c-0.02,0-0.039,0-0.059-0.001c-0.612-0.033-1.082-0.554-1.051-1.166 c0.547-10.53,0.824-19.46,0.824-26.541c0-6.698-0.528-13.827-1.57-21.187c-0.086-0.606,0.337-1.168,0.942-1.254 c0.615-0.084,1.168,0.337,1.254,0.942c1.056,7.464,1.592,14.697,1.592,21.499c0,7.12-0.278,16.088-0.826,26.656 C423.876,803.321,423.387,803.78,422.801,803.78z"/><path fill="#570000" d="M418.186,736.061c-0.498,0-0.952-0.339-1.075-0.845c-1.808-7.362-4.061-14.913-6.697-22.446 c-0.201-0.578,0.103-1.211,0.682-1.414c0.58-0.2,1.211,0.103,1.413,0.682c2.658,7.599,4.932,15.22,6.755,22.649 c0.146,0.595-0.218,1.196-0.812,1.341C418.362,736.051,418.273,736.061,418.186,736.061z"/><path fill="#570000" d="M242.302,739.492c-0.063,0-0.129-0.005-0.194-0.017c-0.603-0.106-1.006-0.682-0.899-1.285 c2.624-14.871,2.676-14.925,3.02-15.281c0.427-0.44,1.129-0.454,1.568-0.028c0.34,0.328,0.425,0.82,0.251,1.23 c-0.195,0.715-1.087,5.579-2.656,14.464C243.298,739.114,242.831,739.492,242.302,739.492z"/><path fill="#570000" d="M238.538,760.999c-0.063,0-0.126-0.005-0.191-0.016c-0.604-0.105-1.007-0.68-0.902-1.283 c0.924-5.302,1.779-10.208,2.546-14.588c0.105-0.602,0.668-1.007,1.285-0.901c0.603,0.106,1.006,0.682,0.901,1.285 c-0.767,4.379-1.623,9.284-2.546,14.586C239.536,760.619,239.068,760.999,238.538,760.999z"/><path fill="#570000" d="M234.564,783.825c-0.063,0-0.127-0.005-0.192-0.016c-0.603-0.105-1.007-0.68-0.902-1.283l2.444-14.036 c0.106-0.603,0.683-1.004,1.282-0.903c0.604,0.105,1.008,0.679,0.903,1.283l-2.443,14.038 C235.562,783.445,235.094,783.825,234.564,783.825z"/><path fill="#570000" d="M230.115,809.32c-0.063,0-0.127-0.005-0.192-0.016c-0.604-0.106-1.006-0.68-0.901-1.285l1.589-9.091 c0.106-0.603,0.668-1.004,1.285-0.901c0.603,0.106,1.006,0.681,0.901,1.285l-1.589,9.091 C231.112,808.941,230.644,809.32,230.115,809.32z"/><path fill="#570000" d="M226.989,827.089c-0.064,0-0.129-0.005-0.194-0.017c-0.604-0.106-1.006-0.681-0.899-1.285 c0.767-4.352,1.539-8.741,2.307-13.126c0.106-0.602,0.669-1.004,1.285-0.901c0.604,0.106,1.006,0.681,0.901,1.284 c-0.768,4.386-1.541,8.775-2.309,13.128C227.986,826.711,227.518,827.089,226.989,827.089z"/><path fill="#570000" d="M224,843.943c-0.065,0-0.13-0.005-0.196-0.017c-0.603-0.107-1.004-0.684-0.896-1.287 c0.731-4.093,1.474-8.278,2.221-12.515c0.105-0.604,0.686-1.011,1.285-0.899c0.603,0.106,1.006,0.681,0.899,1.284 c-0.748,4.239-1.49,8.424-2.222,12.52C224.995,843.566,224.527,843.943,224,843.943z"/><path fill="#570000" d="M218.065,876.619c-0.067,0-0.135-0.006-0.205-0.018c-0.602-0.113-0.999-0.692-0.887-1.294 c0.827-4.433,1.714-9.255,2.643-14.364c0.108-0.604,0.688-1.006,1.289-0.893c0.604,0.109,1.003,0.687,0.893,1.289 c-0.929,5.113-1.816,9.938-2.643,14.375C219.056,876.246,218.59,876.619,218.065,876.619z"/><path fill="#570000" d="M212.18,904.645c-0.184,0-0.371-0.045-0.543-0.142c-0.533-0.3-0.723-0.976-0.423-1.51 c0.296-0.552,1.285-4.073,4.585-21.44c0.114-0.601,0.698-0.995,1.296-0.882c0.602,0.115,0.998,0.695,0.883,1.296 c-3.882,20.427-4.547,21.607-4.83,22.112C212.945,904.441,212.568,904.645,212.18,904.645z"/><path fill="#570000" d="M215.595,825.871c-0.069,0-0.139-0.006-0.209-0.02c-0.602-0.115-0.996-0.696-0.881-1.297l1.881-9.851 c0.115-0.603,0.697-0.992,1.297-0.881c0.603,0.115,0.997,0.696,0.882,1.297l-1.881,9.851 C216.582,825.501,216.117,825.871,215.595,825.871z"/><path fill="#570000" d="M211.493,847.37c-0.069,0-0.139-0.007-0.209-0.02c-0.601-0.115-0.996-0.695-0.881-1.298l2.773-14.539 c0.116-0.603,0.691-0.995,1.298-0.882c0.601,0.115,0.997,0.695,0.881,1.297l-2.773,14.54C212.48,847,212.016,847.37,211.493,847.37 z"/><path fill="#570000" d="M207.678,867.368c-0.069,0-0.139-0.006-0.209-0.02c-0.601-0.115-0.997-0.695-0.882-1.297l2.521-13.208 c0.115-0.602,0.694-0.993,1.297-0.881c0.601,0.115,0.997,0.695,0.882,1.297l-2.521,13.208 C208.665,866.999,208.2,867.368,207.678,867.368z"/><path fill="#570000" d="M204.249,885.333c-0.069,0-0.139-0.007-0.209-0.02c-0.601-0.115-0.997-0.695-0.882-1.298l1.881-9.857 c0.115-0.604,0.697-0.991,1.298-0.882c0.601,0.115,0.996,0.695,0.881,1.298l-1.881,9.857 C205.235,884.963,204.771,885.333,204.249,885.333z"/><path fill="#570000" d="M200.563,904.645c-0.069,0-0.139-0.006-0.209-0.02c-0.601-0.115-0.996-0.695-0.881-1.297l1.75-9.174 c0.116-0.604,0.698-0.992,1.298-0.882c0.601,0.115,0.997,0.695,0.881,1.298l-1.75,9.173 C201.549,904.276,201.085,904.645,200.563,904.645z"/><path fill="#992400" d="M287.529,161.417c-2.033,5.021-4.502,9.56-6.833,13.146c-9.619,14.817-23.34,14.28-46.404,14.399 c-23.044,0.119-51.026-14.399-57.061-36.905c-2.549-9.479-2.848-17.906-1.992-25.113c9.086,37.055,35.383,45.601,32.206,42.66 c-8.567-7.938-11.792-23.083-8.961-23.402c7.837,11.751,42.915,20.462,55.721,14.466 C265.218,155.527,277.351,154.207,287.529,161.417z"/><path fill="#570000" d="M586.932,117.044c-4.094,0-7.595-0.32-9.584-0.851c-1.067-0.285-1.701-1.381-1.417-2.448 c0.284-1.067,1.377-1.702,2.448-1.417c6.154,1.64,25.536,0.643,31.446-3.897c1.39-1.068,1.39-1.872,1.39-2.137 c0-6.359-0.646-7.918-17.601-9.461c-15.701-1.431-35.113,7.69-35.308,7.782c-0.998,0.472-2.19,0.049-2.665-0.949 c-0.474-0.998-0.049-2.19,0.948-2.665c0.834-0.396,20.624-9.683,37.387-8.152c15.733,1.431,21.238,2.875,21.238,13.444 c0,1.387-0.513,3.434-2.953,5.309C607.076,115.588,595.658,117.044,586.932,117.044z"/><path fill="#570000" d="M605.057,98.337c-0.451,0-0.905-0.152-1.279-0.463c-0.994-0.829-0.967-1.931,0.082-3.278 c0.396-0.508,1.198-1.515,2.829-3.509c17.271-21.112,17.472-35.93,17.472-36.077c0-1.104,0.896-2,2-2s2,0.896,2,2 c0,0.659-0.209,16.403-18.376,38.609c-2.356,2.882-2.91,3.612-3.024,3.769c-0.05,0.079-0.104,0.156-0.166,0.229 C606.198,98.092,605.63,98.337,605.057,98.337z"/><path fill="#570000" d="M75.935,470.112c-0.73,0-1.435-0.402-1.787-1.099c-5.253-10.394-2.911-38.554-2.808-39.748 c0.095-1.101,1.076-1.915,2.163-1.822c1.101,0.094,1.917,1.063,1.822,2.163c-0.024,0.281-2.35,28.217,2.393,37.603 c0.498,0.986,0.103,2.188-0.883,2.687C76.546,470.043,76.238,470.112,75.935,470.112z"/><path fill="#d1550b" d="M665.299,1035.62c0,4.603-3.73,8.334-8.333,8.334H498.912c-4.603,0-8.333-3.731-8.333-8.334V594.823 c0-4.604,3.73-8.334,8.333-8.334h158.054c4.603,0,8.333,3.73,8.333,8.334V1035.62z"/><path fill="#992400" d="M887.439,1035.62c0,4.603-3.73,8.334-8.334,8.334H721.052c-4.603,0-8.332-3.731-8.332-8.334V409.519 c0-4.603,3.729-8.333,8.332-8.333h158.054c4.604,0,8.334,3.73,8.334,8.333V1035.62z"/><path fill="#d1550b" d="M1109.579,1035.62c0,4.603-3.729,8.334-8.334,8.334H943.193c-4.604,0-8.335-3.731-8.335-8.334V855.138 c0-4.603,3.731-8.334,8.335-8.334h158.052c4.604,0,8.334,3.731,8.334,8.334V1035.62z"/><path fill="#570000" d="M434.756,519.291c-0.27,0-0.546-0.027-0.813-0.084c-1.22-0.261-1.844-1.045-1.394-1.752l71.129-111.726 c0.295-0.464,1.001-0.799,1.844-0.875c0.846-0.075,1.692,0.119,2.217,0.509l53.586,39.88l143.954-185.961 c0.306-0.396,0.918-0.683,1.646-0.774c0.733-0.094,1.491,0.023,2.053,0.31l76.703,39.209l24.63-21.989 c0.376-0.334,0.984-0.558,1.667-0.609c0.683-0.052,1.37,0.073,1.881,0.34l30.415,15.923l152.69-122.317 c0.763-0.611,2.234-0.746,3.285-0.305c1.051,0.441,1.287,1.295,0.524,1.905L846.549,294.521c-0.393,0.313-0.994,0.516-1.66,0.557 c-0.669,0.038-1.324-0.085-1.82-0.345l-30.315-15.869l-24.61,21.974c-0.373,0.332-0.977,0.554-1.654,0.608 c-0.674,0.052-1.359-0.066-1.873-0.329l-76.353-39.031l-144.247,186.34c-0.339,0.437-1.045,0.738-1.864,0.796 c-0.825,0.055-1.629-0.139-2.137-0.516l-53.389-39.734l-69.663,109.427C436.612,518.95,435.713,519.291,434.756,519.291z"/><polygon fill="#570000" points="1013.838 181.374 1018.661 154.319 975.854 165.42"/></svg>